<?xml version="1.0" standalone="no"?>
<!DOCTYPE svg PUBLIC "-//W3C//DTD SVG 20010904//EN"
 "http://www.w3.org/TR/2001/REC-SVG-20010904/DTD/svg10.dtd">
<svg version="1.0" xmlns="http://www.w3.org/2000/svg"
 width="904.000000pt" height="1280.000000pt" viewBox="0 0 904.000000 1280.000000"
 preserveAspectRatio="xMidYMid meet">

<g transform="translate(0.000000,1280.000000) scale(0.100000,-0.100000)"
fill="#000000" stroke="none">
<path d="M4397 10719 c-172 -15 -323 -53 -502 -126 -151 -61 -344 -171 -422
-240 l-33 -28 25 -29 24 -30 76 54 c350 241 727 352 1091 320 366 -32 687
-183 955 -450 163 -162 250 -281 350 -480 129 -259 196 -534 215 -893 l7 -128
36 3 36 3 3 60 c5 84 -15 300 -39 425 -66 341 -205 659 -394 895 -308 387
-698 604 -1157 645 -124 11 -143 11 -271 -1z"/>
<path d="M1960 9894 c-126 -33 -204 -72 -273 -136 -73 -68 -121 -150 -137
-234 -28 -149 24 -232 167 -269 54 -14 66 -14 97 -1 73 30 84 102 33 217 -35
79 -68 103 -134 96 -29 -3 -53 -3 -53 -1 0 10 61 94 83 115 67 65 199 119 343
140 63 10 81 9 131 -7 184 -58 327 -295 373 -620 17 -123 25 -340 12 -348 -6
-3 -224 -11 -484 -16 -261 -5 -521 -14 -578 -20 -319 -31 -436 -100 -511 -300
-21 -56 -24 -82 -24 -195 0 -107 4 -142 22 -200 49 -153 168 -318 296 -407
238 -168 447 -204 692 -118 169 60 274 135 411 295 146 171 267 445 315 715
13 69 23 126 23 127 1 1 157 11 346 23 190 11 352 23 360 25 8 2 69 9 135 15
66 5 134 13 152 15 l32 6 -6 -453 c-6 -464 0 -582 32 -608 24 -20 79 -8 91 20
8 17 16 196 23 545 15 668 27 1065 42 1289 11 179 7 269 -13 293 -12 15 -86
17 -107 4 -9 -6 -16 -31 -18 -68 -2 -32 -10 -166 -18 -298 -8 -132 -15 -318
-15 -413 0 -129 -3 -174 -12 -177 -14 -4 -302 -36 -498 -55 -158 -16 -503 -38
-512 -33 -5 2 -8 37 -8 76 0 162 -40 409 -84 527 -139 373 -390 523 -726 434z
m-249 -448 c22 -50 35 -106 25 -106 -17 0 -66 32 -80 52 -21 30 -20 68 2 84
26 20 32 17 53 -30z m889 -733 c0 -5 -7 -44 -15 -88 -50 -275 -181 -551 -343
-727 -252 -271 -560 -303 -852 -88 -79 59 -115 96 -168 176 -69 104 -93 175
-99 291 -8 147 22 247 96 318 77 75 250 102 731 114 471 11 650 12 650 4z"/>
<path d="M6537 9498 c-30 -87 -50 -154 -117 -393 -125 -440 -179 -528 -289
-471 -62 33 -182 186 -286 369 -22 37 -43 67 -47 67 -4 0 -21 -8 -38 -18 l-30
-19 53 -89 c144 -242 256 -370 351 -400 52 -16 57 -16 100 0 108 41 160 154
291 629 25 93 62 214 81 269 19 55 34 101 32 103 -12 10 -49 25 -61 25 -9 0
-24 -28 -40 -72z"/>
<path d="M5455 8075 c-187 -34 -332 -107 -457 -230 -88 -87 -130 -152 -163
-250 -34 -101 -40 -161 -25 -237 35 -182 170 -288 367 -288 219 0 396 223 325
411 -22 59 -39 81 -86 113 -33 22 -50 26 -110 26 -74 0 -96 -10 -96 -41 0 -18
10 -23 71 -33 58 -10 99 -73 99 -151 0 -39 -40 -118 -83 -163 -98 -102 -266
-102 -352 0 -38 44 -65 107 -72 166 -7 59 18 175 52 242 57 112 186 233 321
299 132 66 337 91 426 52 91 -40 158 -120 158 -189 0 -101 -89 -288 -210 -440
-23 -30 -173 -185 -334 -345 -376 -375 -441 -463 -453 -603 -5 -54 -2 -68 21
-111 30 -54 74 -93 126 -112 19 -7 89 -15 155 -18 143 -7 324 12 595 62 212
39 428 71 435 63 5 -5 -11 -236 -21 -295 -2 -18 -26 -58 -53 -90 -158 -190
-325 -431 -390 -561 -84 -167 -139 -374 -126 -477 25 -207 90 -295 216 -295
172 0 249 171 338 750 54 356 73 468 81 498 12 46 134 187 336 389 100 99 154
170 154 201 0 33 -23 44 -71 33 -24 -5 -107 -17 -184 -26 -77 -9 -149 -19
-159 -22 -19 -5 -19 1 -13 229 7 266 17 373 53 573 14 77 30 167 36 200 6 33
14 64 18 69 5 5 50 -11 102 -37 131 -64 226 -101 351 -137 59 -17 123 -40 142
-51 31 -19 36 -19 63 -5 45 23 56 70 25 98 -10 9 -75 32 -145 52 -127 36 -175
56 -390 160 -117 57 -122 58 -190 40 -22 -6 -45 -67 -63 -167 -72 -398 -82
-488 -92 -810 -6 -220 -7 -228 -27 -232 -12 -2 -102 -16 -201 -30 -99 -15
-218 -35 -265 -45 -192 -42 -469 -62 -582 -44 -52 9 -115 65 -124 110 -9 50
25 133 93 224 31 41 195 213 364 382 261 260 317 322 374 409 86 131 130 223
151 316 33 151 -11 245 -156 334 -78 49 -209 61 -355 34z m975 -1782 c-69 -76
-183 -194 -185 -191 -3 4 16 212 19 216 5 5 121 20 165 21 l44 1 -43 -47z
m-370 -839 c-72 -467 -86 -533 -136 -664 -33 -83 -68 -122 -103 -113 -65 15
-96 93 -95 238 1 118 26 206 102 368 43 91 178 308 235 377 32 39 32 20 -3
-206z"/>
<path d="M1724 7248 c-14 -22 -17 -299 -5 -407 25 -234 84 -438 183 -636 205
-410 518 -721 938 -931 566 -283 1211 -299 1758 -43 l102 48 -17 35 c-9 20
-20 36 -23 36 -4 0 -54 -22 -111 -49 -573 -269 -1269 -215 -1849 145 -133 82
-204 138 -329 259 -309 300 -478 612 -552 1020 -18 97 -22 158 -22 320 0 131
-4 203 -11 207 -17 12 -54 9 -62 -4z"/>
<path d="M4260 5602 l0 -40 68 -7 c86 -9 234 -39 292 -60 209 -74 212 -172 13
-442 -43 -58 -109 -149 -146 -201 -63 -90 -66 -98 -50 -110 47 -35 50 -35 90
23 21 31 87 122 147 203 133 180 179 270 184 362 4 80 -20 127 -91 181 -77 58
-260 111 -434 126 l-73 6 0 -41z"/>
</g>
</svg>
